<?xml version="1.0" encoding="UTF-8" standalone="no"?>

<svg version="1.1" xmlns="http://www.w3.org/2000/svg" viewBox="0 0 400 400">
    <!-- Background gradient -->
    <defs>
        <linearGradient id="bgGradient" x1="0%" y1="0%" x2="0%" y2="100%">
            <stop offset="0%" style="stop-color:#E8F5F7;stop-opacity:1" />
            <stop offset="100%" style="stop-color:#B3E5F0;stop-opacity:1" />
        </linearGradient>
    </defs>

    <rect width="400" height="400" fill="url(#bgGradient)"/>

    <!-- Shop icon ở giữa (scaled up) -->
    <g transform="translate(100, 80) scale(3.125)">
        <!-- Biển SHOP -->
        <path fill="#BF4851" d="M52,18H12V2.8C12,1.3,13.3,0,14.8,0h34.4C50.7,0,52,1.3,52,2.8V18z"/>
        <g>
            <path fill="#FFFFFF" d="M23,6c0.6,0,1-0.4,1-1s-0.4-1-1-1h-2.9C18.9,4,18,4.9,18,6.1v1.9c0,1.1,0.9,2.1,2.1,2.1l1.9,0.1L21.9,12H19c-0.6,0-1,0.4-1,1s0.4,1,1,1h2.9c1.1,0,2.1-0.9,2.1-2.1v-1.9C24,8.9,23.1,8,21.9,8L20,7.9L20.1,6H23z"/>
            <path fill="#FFFFFF" d="M37.8,4h-1.7C35,4,34,5,34,6.2v5.7c0,1.2,1,2.2,2.2,2.2h1.7c1.2,0,2.2-1,2.2-2.2V6.2C40,5,39,4,37.8,4z M38,11.8c0,0.1-0.1,0.2-0.2,0.2h-1.7c-0.1,0-0.2-0.1-0.2-0.2V6.2C36,6.1,36.1,6,36.2,6h1.7C37.9,6,38,6.1,38,6.2V11.8z"/>
            <path fill="#FFFFFF" d="M45.9,4H43c-0.6,0-1,0.4-1,1v8c0,0.6,0.4,1,1,1s1-0.4,1-1v-3h1.9c1.2,0,2.1-0.9,2.1-2.1V6.1C48,4.9,47.1,4,45.9,4z M46,7.9C46,8,46,8,46,7.9L44,8V6h1.9C46,6,46,6,46,6.1V7.9z"/>
            <path fill="#FFFFFF" d="M31,4c-0.6,0-1,0.4-1,1v3h-2V5c0-0.6-0.4-1-1-1s-1,0.4-1,1v8c0,0.6,0.4,1,1,1s1-0.4,1-1v-3h2v3c0,0.6,0.4,1,1,1s1-0.4,1-1V5C32,4.4,31.6,4,31,4z"/>
        </g>

        <!-- Thanh ngang -->
        <path fill="#915D2D" d="M64,20H0v-2c0-2.2,1.8-4,4-4h56c2.2,0,4,1.8,4,4V20z"/>

        <!-- Phần mái hiên -->
        <g>
            <path fill="#BF4851" d="M2,26L2,26c-1.1,0-2-0.9-2-2l0-4h4v4C4,25.1,3.1,26,2,26z"/>
            <path fill="#BF4851" d="M10,26L10,26c-1.1,0-2-0.9-2-2v-4h4v4C12,25.1,11.1,26,10,26z"/>
            <path fill="#BF4851" d="M18,26L18,26c-1.1,0-2-0.9-2-2v-4h4v4C20,25.1,19.1,26,18,26z"/>
            <path fill="#BF4851" d="M26,26L26,26c-1.1,0-2-0.9-2-2v-4h4v4C28,25.1,27.1,26,26,26z"/>
            <path fill="#BF4851" d="M34,26L34,26c-1.1,0-2-0.9-2-2v-4h4v4C36,25.1,35.1,26,34,26z"/>
            <path fill="#BF4851" d="M42,26L42,26c-1.1,0-2-0.9-2-2v-4h4v4C44,25.1,43.1,26,42,26z"/>
            <path fill="#BF4851" d="M50,26L50,26c-1.1,0-2-0.9-2-2v-4h4v4C52,25.1,51.1,26,50,26z"/>
            <path fill="#BF4851" d="M58,26L58,26c-1.1,0-2-0.9-2-2v-4h4v4C60,25.1,59.1,26,58,26z"/>
        </g>
        <g>
            <path fill="#FAEC94" d="M6,26L6,26c-1.1,0-2-0.9-2-2v-4h4v4C8,25.1,7.1,26,6,26z"/>
            <path fill="#FAEC94" d="M14,26L14,26c-1.1,0-2-0.9-2-2v-4h4v4C16,25.1,15.1,26,14,26z"/>
            <path fill="#FAEC94" d="M22,26L22,26c-1.1,0-2-0.9-2-2v-4h4v4C24,25.1,23.1,26,22,26z"/>
            <path fill="#FAEC94" d="M30,26L30,26c-1.1,0-2-0.9-2-2v-4h4v4C32,25.1,31.1,26,30,26z"/>
            <path fill="#FAEC94" d="M38,26L38,26c-1.1,0-2-0.9-2-2v-4h4v4C40,25.1,39.1,26,38,26z"/>
            <path fill="#FAEC94" d="M46,26L46,26c-1.1,0-2-0.9-2-2v-4h4v4C48,25.1,47.1,26,46,26z"/>
            <path fill="#FAEC94" d="M54,26L54,26c-1.1,0-2-0.9-2-2v-4h4v4C56,25.1,55.1,26,54,26z"/>
            <path fill="#FAEC94" d="M62,26L62,26c-1.1,0-2-0.9-2-2v-4h4v4C64,25.1,63.1,26,62,26z"/>
        </g>

        <!-- Cửa sổ -->
        <rect x="2" y="30" fill="#FFFFFF" width="42" height="28"/>
        <rect x="4" y="32" fill="#90CAF0" width="40" height="24"/>

        <!-- Cửa -->
        <rect x="44" y="30" fill="#FFFFFF" width="18" height="34"/>
        <rect x="46" y="32" fill="#915D2D" width="14" height="32"/>
        <rect x="48" y="34" fill="#90CAF0" width="10" height="22"/>
        <path fill="#915D2D" d="M49,48h-3v-2h3c0.6,0,1,0.4,1,1l0,0C50,47.6,49.6,48,49,48z"/>

        <!-- Bánh mì -->
        <path fill="#F2A500" d="M8,53h32v0.7c0,1.3-1,2.3-2.3,2.3H10.3C9,56,8,55,8,53.7V53z"/>
        <path fill="#F2A500" d="M24,46c-8.8,0-16,3.1-16,7h32C40,49.1,32.8,46,24,46z"/>
        <g>
            <path fill="#915D2D" d="M17,51c1.1-1.7,1.6-3.4,1.8-4.6c-0.8,0.1-1.7,0.3-2.4,0.5C16.7,47.9,17,49.3,17,51z"/>
            <path fill="#915D2D" d="M30.3,46.6c0.4,1.1,0.7,2.6,0.7,4.4c0.9-1.4,1.4-2.8,1.7-3.9C31.9,46.9,31.1,46.7,30.3,46.6z"/>
            <path fill="#915D2D" d="M24,46c-0.5,0-0.9,0-1.3,0c0.6,1.1,1.3,3,1.3,6c1.5-2.5,1.9-4.7,2-5.9C25.3,46,24.7,46,24,46z"/>
        </g>

        <!-- Khói -->
        <path fill="#A3A4A6" d="M19,44c-0.6,0-1-0.4-1-1c0-1.1,0.5-2.2,1.4-2.8c0.4-0.3,0.6-0.7,0.6-1.2s-0.2-0.9-0.6-1.2c-0.4-0.3-0.6-0.9-0.2-1.4c0.3-0.4,0.9-0.6,1.4-0.2c0.9,0.6,1.4,1.7,1.4,2.8s-0.5,2.2-1.4,2.8C20.2,42.1,20,42.5,20,43C20,43.6,19.6,44,19,44z"/>
        <path fill="#A3A4A6" d="M24,44c-0.6,0-1-0.4-1-1c0-1.1,0.5-2.2,1.4-2.8c0.4-0.3,0.6-0.7,0.6-1.2s-0.2-0.9-0.6-1.2c-0.4-0.3-0.6-0.9-0.2-1.4c0.3-0.4,0.9-0.6,1.4-0.2c0.9,0.6,1.4,1.7,1.4,2.8s-0.5,2.2-1.4,2.8C25.2,42.1,25,42.5,25,43C25,43.6,24.6,44,24,44z"/>
        <path fill="#A3A4A6" d="M29,44c-0.6,0-1-0.4-1-1c0-1.1,0.5-2.2,1.4-2.8c0.4-0.3,0.6-0.7,0.6-1.2s-0.2-0.9-0.6-1.2c-0.4-0.3-0.6-0.9-0.2-1.4c0.3-0.4,0.9-0.6,1.4-0.2c0.9,0.6,1.4,1.7,1.4,2.8s-0.5,2.2-1.4,2.8C30.2,42.1,30,42.5,30,43C30,43.6,29.6,44,29,44z"/>
    </g>

    <!-- App name (tuỳ chọn) -->
    <text x="200" y="330" font-family="Arial, sans-serif" font-size="32" font-weight="bold" fill="#BF4851" text-anchor="middle">
        Shopping
    </text>

    <!-- Slogan (tuỳ chọn) -->
    <text x="200" y="360" font-family="Arial, sans-serif" font-size="16" fill="#666666" text-anchor="middle">
        Buy fast, buy easy
    </text>
</svg>
